<svg width="967" height="698" viewBox="0 0 967 698" fill="none" xmlns="http://www.w3.org/2000/svg">
<path d="M1025.61 340.764H585.786V696.295H1025.61V340.764Z" fill="#225AC5"/>
<path d="M1025.85 640.41V696.295H585.786V340.764H1025.85V524.55" stroke="#35363A" stroke-width="5" stroke-miterlimit="10" stroke-linecap="round" stroke-linejoin="round"/>
<path d="M689.247 451.399H633.772V505.24H689.247V451.399Z" fill="white"/>
<path d="M977.86 451.399H922.385V505.24H977.86V451.399Z" fill="white"/>
<path d="M862.696 696.295H748.702V548.176C748.702 517.734 774.216 492.972 805.582 492.972C836.948 492.972 862.462 517.734 862.462 548.176V696.295H862.696Z" fill="white"/>
<path d="M689.247 451.399H633.772V505.24H689.247V451.399Z" stroke="#35363A" stroke-width="5" stroke-miterlimit="10" stroke-linecap="round" stroke-linejoin="round"/>
<path d="M977.86 451.399H922.385V505.24H977.86V451.399Z" stroke="#35363A" stroke-width="5" stroke-miterlimit="10" stroke-linecap="round" stroke-linejoin="round"/>
<path d="M862.696 696.295H748.702V548.176C748.702 517.734 774.216 492.972 805.582 492.972C836.948 492.972 862.462 517.734 862.462 548.176V696.295H862.696Z" stroke="#35363A" stroke-width="5" stroke-miterlimit="10" stroke-linecap="round" stroke-linejoin="round"/>
<path d="M595.851 388.244C581.339 388.244 569.635 376.885 569.635 362.8V245.804H622.068V362.8C622.068 376.885 610.364 388.244 595.851 388.244Z" fill="white"/>
<path d="M648.284 388.244C633.771 388.244 622.068 376.885 622.068 362.8V245.804H674.5V362.8C674.5 376.885 662.797 388.244 648.284 388.244Z" fill="#225AC5"/>
<path d="M700.717 388.244C686.204 388.244 674.5 376.885 674.5 362.8V245.804H726.933V362.8C726.933 376.885 715.229 388.244 700.717 388.244Z" fill="white"/>
<path d="M753.383 388.244C738.871 388.244 727.167 376.885 727.167 362.8V245.804H779.6V362.8C779.6 376.885 767.896 388.244 753.383 388.244Z" fill="#225AC5"/>
<path d="M805.816 388.244C791.303 388.244 779.599 376.885 779.599 362.8V245.804H832.032V362.8C832.032 376.885 820.328 388.244 805.816 388.244Z" fill="white"/>
<path d="M858.249 388.244C843.736 388.244 832.032 376.885 832.032 362.8V245.804H884.465V362.8C884.699 376.885 872.761 388.244 858.249 388.244Z" fill="#225AC5"/>
<path d="M910.915 388.244C896.403 388.244 884.699 376.885 884.699 362.8V245.804H937.131V362.8C937.131 376.885 925.428 388.244 910.915 388.244Z" fill="white"/>
<path d="M963.347 388.244C948.835 388.244 937.131 376.885 937.131 362.8V245.804H989.564V362.8C989.564 376.885 977.86 388.244 963.347 388.244Z" fill="#225AC5"/>
<path d="M595.851 388.244C581.339 388.244 569.635 376.885 569.635 362.8V245.804H622.068V362.8C622.068 376.885 610.364 388.244 595.851 388.244Z" stroke="#35363A" stroke-width="5" stroke-miterlimit="10" stroke-linecap="round" stroke-linejoin="round"/>
<path d="M648.284 388.244C633.771 388.244 622.068 376.885 622.068 362.8V245.804H674.5V362.8C674.5 376.885 662.797 388.244 648.284 388.244Z" stroke="#35363A" stroke-width="5" stroke-miterlimit="10" stroke-linecap="round" stroke-linejoin="round"/>
<path d="M700.717 388.244C686.204 388.244 674.5 376.885 674.5 362.8V245.804H726.933V362.8C726.933 376.885 715.229 388.244 700.717 388.244Z" stroke="#35363A" stroke-width="5" stroke-miterlimit="10" stroke-linecap="round" stroke-linejoin="round"/>
<path d="M753.383 388.244C738.871 388.244 727.167 376.885 727.167 362.8V245.804H779.6V362.8C779.6 376.885 767.896 388.244 753.383 388.244Z" stroke="#35363A" stroke-width="5" stroke-miterlimit="10" stroke-linecap="round" stroke-linejoin="round"/>
<path d="M805.816 388.244C791.303 388.244 779.599 376.885 779.599 362.8V245.804H832.032V362.8C832.032 376.885 820.328 388.244 805.816 388.244Z" stroke="#35363A" stroke-width="5" stroke-miterlimit="10" stroke-linecap="round" stroke-linejoin="round"/>
<path d="M858.249 388.244C843.736 388.244 832.032 376.885 832.032 362.8V245.804H884.465V362.8C884.699 376.885 872.761 388.244 858.249 388.244Z" stroke="#35363A" stroke-width="5" stroke-miterlimit="10" stroke-linecap="round" stroke-linejoin="round"/>
<path d="M910.915 388.244C896.403 388.244 884.699 376.885 884.699 362.8V245.804H937.131V362.8C937.131 376.885 925.428 388.244 910.915 388.244Z" stroke="#35363A" stroke-width="5" stroke-miterlimit="10" stroke-linecap="round" stroke-linejoin="round"/>
<path d="M963.347 388.244C948.835 388.244 937.131 376.885 937.131 362.8V245.804H989.564V362.8C989.564 376.885 977.86 388.244 963.347 388.244Z" stroke="#35363A" stroke-width="5" stroke-miterlimit="10" stroke-linecap="round" stroke-linejoin="round"/>
<path d="M695.58 170.532H682.497L662.207 100.462L674.139 97.1706L695.58 170.532Z" fill="#225AC5"/>
<path d="M695.58 170.532H682.497L662.207 100.462L674.139 97.1706L695.58 170.532Z" stroke="#35363A" stroke-width="5" stroke-miterlimit="10" stroke-linecap="round" stroke-linejoin="round"/>
<path d="M699.154 115.217H671.353C658.815 115.217 648.7 105.341 648.7 93.2321C648.7 81.0639 658.876 71.2471 671.353 71.2471H699.154V115.217Z" fill="white"/>
<path d="M699.154 115.217H671.353C658.815 115.217 648.7 105.341 648.7 93.2321C648.7 81.0639 658.876 71.2471 671.353 71.2471H699.154V115.217Z" stroke="#35363A" stroke-width="5" stroke-miterlimit="10" stroke-linecap="round" stroke-linejoin="round"/>
<path d="M759.115 95.547C760.422 90.1758 756.995 84.7935 751.461 83.5252C745.927 82.257 740.381 85.583 739.074 90.9542C737.767 96.3253 741.194 101.708 746.729 102.976C752.263 104.244 757.809 100.918 759.115 95.547Z" fill="white"/>
<path d="M754.937 76.1849C762.266 78.5362 767.595 85.2963 767.595 93.2321C767.595 101.168 762.266 107.869 754.937 110.279" stroke="#35363A" stroke-width="5" stroke-miterlimit="10" stroke-linecap="round" stroke-linejoin="round"/>
<path d="M754.937 69.1897C766.142 71.7174 774.5 81.5342 774.5 93.1733C774.5 104.871 766.142 114.629 754.937 117.157" stroke="#35363A" stroke-width="5" stroke-miterlimit="10" stroke-linecap="round" stroke-linejoin="round"/>
<path d="M754.937 61.0776C770.685 63.7229 782.677 77.1254 782.677 93.1733C782.677 109.221 770.685 122.624 754.937 125.269" stroke="#35363A" stroke-width="5" stroke-miterlimit="10" stroke-linecap="round" stroke-linejoin="round"/>
<path d="M759.115 95.547C760.422 90.1758 756.995 84.7935 751.461 83.5252C745.927 82.257 740.381 85.583 739.074 90.9542C737.767 96.3253 741.194 101.708 746.729 102.976C752.263 104.244 757.809 100.918 759.115 95.547Z" stroke="#35363A" stroke-width="5" stroke-miterlimit="10" stroke-linecap="round" stroke-linejoin="round"/>
<path d="M749.122 132.441L681.589 115.217V71.1883L749.122 53.9648V132.441Z" fill="#225AC5"/>
<path d="M711.691 63.4877L721.14 61.0776" stroke="#35363A" stroke-width="5" stroke-miterlimit="10" stroke-linecap="round" stroke-linejoin="round"/>
<path d="M735.252 57.4918L749.122 53.9648V132.441L681.589 115.217V71.1883L703.091 65.7214" stroke="#35363A" stroke-width="5" stroke-miterlimit="10" stroke-linecap="round" stroke-linejoin="round"/>
<path d="M689.463 69.1897V117.216" stroke="#35363A" stroke-width="5" stroke-miterlimit="10" stroke-linecap="round" stroke-linejoin="round"/>
<path d="M326.388 777.694H39.7621L3 566.102H363.15L326.388 777.694Z" fill="#225AC5"/>
<path d="M222.393 566.102H363.15L326.388 777.694H39.7621L3 566.102H117.808" stroke="#35363A" stroke-width="5" stroke-miterlimit="10" stroke-linecap="round" stroke-linejoin="round"/>
<path d="M164.792 566.102H183.075" stroke="#35363A" stroke-width="5" stroke-miterlimit="10" stroke-linecap="round" stroke-linejoin="round"/>
<path d="M363.15 818.525H42.1209C35.6335 818.525 30.3256 813.373 30.3256 807.077C30.3256 800.781 35.6335 795.629 42.1209 795.629H353.91L418.981 530.041C420.16 524.89 424.879 521.265 430.383 521.265H477.761C484.248 521.265 489.556 526.416 489.556 532.713C489.556 539.009 484.248 544.16 477.761 544.16H439.623L374.552 809.939C373.372 814.899 368.654 818.525 363.15 818.525Z" fill="#225AC5"/>
<path d="M363.15 818.525H42.1209C35.6335 818.525 30.3256 813.373 30.3256 807.077C30.3256 800.781 35.6335 795.629 42.1209 795.629H353.91L418.981 530.041C420.16 524.89 424.879 521.265 430.383 521.265H477.761C484.248 521.265 489.556 526.416 489.556 532.713C489.556 539.009 484.248 544.16 477.761 544.16H439.623L374.552 809.939C373.372 814.899 368.654 818.525 363.15 818.525Z" stroke="#35363A" stroke-width="5" stroke-miterlimit="10" stroke-linecap="round" stroke-linejoin="round"/>
<path d="M183.075 566.102V777.694" stroke="#35363A" stroke-width="5" stroke-miterlimit="10" stroke-linecap="round" stroke-linejoin="round"/>
<path d="M85.3706 566.102L106.012 777.694" stroke="#35363A" stroke-width="5" stroke-miterlimit="10" stroke-linecap="round" stroke-linejoin="round"/>
<path d="M280.779 566.102L260.138 777.694" stroke="#35363A" stroke-width="5" stroke-miterlimit="10" stroke-linecap="round" stroke-linejoin="round"/>
<path d="M15.7783 639.94H348.602" stroke="#35363A" stroke-width="5" stroke-miterlimit="10" stroke-linecap="round" stroke-linejoin="round"/>
<path d="M510.93 2.82202H334.647V110.133H510.93V2.82202Z" fill="white"/>
<path d="M510.93 2.82202H334.647V110.133H510.93V2.82202Z" stroke="#35363A" stroke-width="5" stroke-miterlimit="10" stroke-linecap="round" stroke-linejoin="round"/>
<path d="M510.93 24.8433H334.647V53.0474H510.93V24.8433Z" fill="#225AC5"/>
<path d="M510.93 24.8433H334.647V53.0474H510.93V24.8433Z" stroke="#35363A" stroke-width="5" stroke-miterlimit="10" stroke-linecap="round" stroke-linejoin="round"/>
<path d="M489.462 17.5594H313.18V124.871H489.462V17.5594Z" fill="#225AC5"/>
<path d="M361.526 124.871H313.18V17.5594H489.462V124.871H417.378" stroke="#35363A" stroke-width="5" stroke-miterlimit="10" stroke-linecap="round" stroke-linejoin="round"/>
<path d="M398.179 124.871H382.994" stroke="#35363A" stroke-width="5" stroke-miterlimit="10" stroke-linecap="round" stroke-linejoin="round"/>
<path d="M489.462 39.5806H313.18V67.7848H489.462V39.5806Z" fill="white"/>
<path d="M489.462 39.5806H313.18V67.7848H489.462V39.5806Z" stroke="#35363A" stroke-width="5" stroke-miterlimit="10" stroke-linecap="round" stroke-linejoin="round"/>
<path d="M327.753 85.3171H378.369" stroke="#35363A" stroke-width="5" stroke-miterlimit="10" stroke-linecap="round" stroke-linejoin="round"/>
<path d="M327.753 95.1419H378.369" stroke="#35363A" stroke-width="5" stroke-miterlimit="10" stroke-linecap="round" stroke-linejoin="round"/>
<path d="M327.753 104.543H367.286" stroke="#35363A" stroke-width="5" stroke-miterlimit="10" stroke-linecap="round" stroke-linejoin="round"/>
<path d="M443.21 97.0053C443.21 99.9697 440.679 102.426 437.624 102.426C434.57 102.426 432.039 99.9697 432.039 97.0053C432.039 94.0409 434.57 91.5846 437.624 91.5846C440.679 91.4999 443.21 93.9562 443.21 97.0053Z" fill="white"/>
<path d="M443.21 97.0053C443.21 99.9697 440.679 102.426 437.624 102.426C434.57 102.426 432.039 99.9697 432.039 97.0053C432.039 94.0409 434.57 91.5846 437.624 91.5846C440.679 91.4999 443.21 93.9562 443.21 97.0053Z" stroke="#35363A" stroke-width="5" stroke-miterlimit="10" stroke-linecap="round" stroke-linejoin="round"/>
<path d="M459.529 97.0053C459.529 99.9697 456.998 102.426 453.944 102.426C450.889 102.426 448.359 99.9697 448.359 97.0053C448.359 94.0409 450.889 91.5846 453.944 91.5846C457.086 91.4999 459.529 93.9562 459.529 97.0053Z" fill="white"/>
<path d="M459.529 97.0053C459.529 99.9697 456.998 102.426 453.944 102.426C450.889 102.426 448.359 99.9697 448.359 97.0053C448.359 94.0409 450.889 91.5846 453.944 91.5846C457.086 91.4999 459.529 93.9562 459.529 97.0053Z" stroke="#35363A" stroke-width="5" stroke-miterlimit="10" stroke-linecap="round" stroke-linejoin="round"/>
<path d="M475.936 97.0053C475.936 99.9697 473.405 102.426 470.35 102.426C467.296 102.426 464.765 99.9697 464.765 97.0053C464.765 94.0409 467.296 91.5846 470.35 91.5846C473.405 91.4999 475.936 93.9562 475.936 97.0053Z" fill="white"/>
<path d="M475.936 97.0053C475.936 99.9697 473.405 102.426 470.35 102.426C467.296 102.426 464.765 99.9697 464.765 97.0053C464.765 94.0409 467.296 91.5846 470.35 91.5846C473.405 91.4999 475.936 93.9562 475.936 97.0053Z" stroke="#35363A" stroke-width="5" stroke-miterlimit="10" stroke-linecap="round" stroke-linejoin="round"/>
<path d="M332.91 225.144H186.42V403.881H332.91V225.144Z" fill="#225AC5"/>
<path d="M332.91 225.144H186.42V403.881H332.91V225.144Z" stroke="#35363A" stroke-width="5" stroke-miterlimit="10" stroke-linecap="round" stroke-linejoin="round"/>
<path d="M320.202 245.628L333.024 225.144H259.722H186.42L199.242 245.628L177.796 266.111H259.722H341.648L320.202 245.628Z" fill="white"/>
<path d="M320.202 245.628L333.024 225.144H259.722H186.42L199.242 245.628L177.796 266.111H259.722H341.648L320.202 245.628Z" stroke="#35363A" stroke-width="5" stroke-miterlimit="10" stroke-linecap="round" stroke-linejoin="round"/>
<path d="M356.285 444.848H163.158L177.796 266.112H341.647L356.285 444.848Z" fill="#225AC5"/>
<path d="M350.385 371.944L356.285 444.848H163.158L177.796 266.112H341.647L344.938 306.528" stroke="#35363A" stroke-width="5" stroke-miterlimit="10" stroke-linecap="round" stroke-linejoin="round"/>
<path d="M347.208 333.619L348.569 350.359" stroke="#35363A" stroke-width="5" stroke-miterlimit="10" stroke-linecap="round" stroke-linejoin="round"/>
<path d="M225.227 309.722C229.801 309.722 233.51 305.777 233.51 300.912C233.51 296.046 229.801 292.102 225.227 292.102C220.652 292.102 216.943 296.046 216.943 300.912C216.943 305.777 220.652 309.722 225.227 309.722Z" fill="white"/>
<path d="M225.227 309.722C229.801 309.722 233.51 305.777 233.51 300.912C233.51 296.046 229.801 292.102 225.227 292.102C220.652 292.102 216.943 296.046 216.943 300.912C216.943 305.777 220.652 309.722 225.227 309.722Z" stroke="#35363A" stroke-width="5" stroke-miterlimit="10" stroke-linecap="round" stroke-linejoin="round"/>
<path d="M294.217 309.722C298.792 309.722 302.5 305.777 302.5 300.912C302.5 296.046 298.792 292.102 294.217 292.102C289.642 292.102 285.933 296.046 285.933 300.912C285.933 305.777 289.642 309.722 294.217 309.722Z" fill="white"/>
<path d="M294.217 309.722C298.792 309.722 302.5 305.777 302.5 300.912C302.5 296.046 298.792 292.102 294.217 292.102C289.642 292.102 285.933 296.046 285.933 300.912C285.933 305.777 289.642 309.722 294.217 309.722Z" stroke="#35363A" stroke-width="5" stroke-miterlimit="10" stroke-linecap="round" stroke-linejoin="round"/>
<path d="M294.217 302.123C294.217 328.774 278.785 350.359 259.722 350.359C240.659 350.359 225.227 328.774 225.227 302.123" stroke="#35363A" stroke-width="5" stroke-miterlimit="10" stroke-linecap="round" stroke-linejoin="round"/>
<path d="M225.227 411.479H294.217" stroke="#35363A" stroke-width="5" stroke-miterlimit="10" stroke-linecap="round" stroke-linejoin="round"/>
<path d="M235.098 395.951H284.345" stroke="#35363A" stroke-width="5" stroke-miterlimit="10" stroke-linecap="round" stroke-linejoin="round"/>
</svg>
